<svg xmlns="http://www.w3.org/2000/svg" width="100" height="49" viewBox="0 0 176.667 138.81">
  <path id="iconfinder_server_1608829" d="M12.619,254.19H113.571V241.571H12.619Zm0-50.476H113.571V191.1H12.619ZM167.2,247.881a9.425,9.425,0,1,0-2.76,6.7A9.127,9.127,0,0,0,167.2,247.881ZM12.619,153.238H113.571V140.619H12.619ZM167.2,197.4a9.425,9.425,0,1,0-2.76,6.7A9.127,9.127,0,0,0,167.2,197.4Zm0-50.476a9.425,9.425,0,1,0-2.76,6.7A9.127,9.127,0,0,0,167.2,146.929Zm9.464,82.024V266.81H0V228.952Zm0-50.476v37.857H0V178.476Zm0-50.476v37.857H0V128Z" transform="translate(0 -128)" fill="#fff"/>
</svg>
