<svg xmlns="http://www.w3.org/2000/svg" width="100" height="49.712" viewBox="0 0 26.502 49.712">
  <path id="iconfinder_storm_727681" d="M161.56,86.165a1.025,1.025,0,0,0-.781-.742l-10.957-1.828,5.027-13.024a1.3,1.3,0,0,0-.073-1.08.951.951,0,0,0-.819-.517h-15.3a1.057,1.057,0,0,0-.976,1.093l-.7,23.145a1.1,1.1,0,0,0,.837,1.161l7.618,1.273L135.236,117a1.254,1.254,0,0,0,.283,1.469.883.883,0,0,0,.571.213.917.917,0,0,0,.718-.367L161.36,87.312A1.273,1.273,0,0,0,161.56,86.165Z" transform="translate(-135.114 -68.974)" fill="#fff"/>
</svg>
