<svg xmlns="http://www.w3.org/2000/svg" width="50" height="55" viewBox="0 0 49.712 50">
  <g id="iconfinder_storage__ssd__card__device__data__server__hardware_2318020" transform="translate(0)">
    <path id="Path_5" data-name="Path 5" d="M2,49.464A1.039,1.039,0,0,0,3.036,50.5H50.676a1.039,1.039,0,0,0,1.036-1.036V36H2ZM7.178,39.107H46.534v2.071H7.178Zm0,5.178h4.143v2.071H7.178Z" transform="translate(-2 -0.787)" fill="#fff"/>
    <path id="Path_6" data-name="Path 6" d="M42.2,8.545h-.879v4.111h.976a1.923,1.923,0,0,0,1.448-.519,2.119,2.119,0,0,0,.5-1.532A1.815,1.815,0,0,0,42.2,8.545Z" transform="translate(-0.598 -1.767)" fill="#fff"/>
    <path id="Path_7" data-name="Path 7" d="M49.82,2H27.036A1.039,1.039,0,0,0,26,3.036v14.5a1.039,1.039,0,0,0,1.036,1.036H49.82a1.039,1.039,0,0,0,1.036-1.036V3.036A1.039,1.039,0,0,0,49.82,2ZM34.692,13.422a1.873,1.873,0,0,1-1.348.489,2.947,2.947,0,0,1-2.167-.97l.551-.764a2.321,2.321,0,0,0,1.638.79,1.01,1.01,0,0,0,.674-.21.692.692,0,0,0,.25-.558.662.662,0,0,0-.235-.541,2.292,2.292,0,0,0-.808-.352,6.535,6.535,0,0,1-.872-.292,1.916,1.916,0,0,1-.529-.348,1.555,1.555,0,0,1-.461-1.236,1.6,1.6,0,0,1,.525-1.283,1.925,1.925,0,0,1,1.3-.451,2.743,2.743,0,0,1,.99.189,2.51,2.51,0,0,1,.849.532l-.469.764a1.727,1.727,0,0,0-.625-.395,2.123,2.123,0,0,0-.778-.155,1.036,1.036,0,0,0-.629.18.632.632,0,0,0-.246.545.665.665,0,0,0,.246.558,3.386,3.386,0,0,0,1.046.416,2.732,2.732,0,0,1,1.207.627,1.608,1.608,0,0,1,.405,1.189A1.679,1.679,0,0,1,34.692,13.422Zm4.692,0a1.873,1.873,0,0,1-1.348.489,2.947,2.947,0,0,1-2.167-.97l.551-.764a2.321,2.321,0,0,0,1.638.79,1.01,1.01,0,0,0,.674-.21.692.692,0,0,0,.25-.558.662.662,0,0,0-.235-.541,2.292,2.292,0,0,0-.808-.352,6.532,6.532,0,0,1-.872-.292,1.916,1.916,0,0,1-.529-.348,1.555,1.555,0,0,1-.461-1.236A1.6,1.6,0,0,1,36.6,8.148,1.925,1.925,0,0,1,37.9,7.7a2.743,2.743,0,0,1,.99.189,2.511,2.511,0,0,1,.849.532l-.469.764a1.726,1.726,0,0,0-.625-.395,2.124,2.124,0,0,0-.778-.155,1.036,1.036,0,0,0-.629.18.632.632,0,0,0-.246.545.666.666,0,0,0,.246.558,3.388,3.388,0,0,0,1.046.416,2.732,2.732,0,0,1,1.207.627,1.608,1.608,0,0,1,.406,1.189A1.679,1.679,0,0,1,39.384,13.422Zm5.564-.4a2.848,2.848,0,0,1-2.234.815H40.986v-6h1.787a2.84,2.84,0,0,1,2.152.785,3.027,3.027,0,0,1,.752,2.184A3.2,3.2,0,0,1,44.947,13.027Z" transform="translate(-1.144 -2)" fill="#fff"/>
    <path id="Path_8" data-name="Path 8" d="M47.405,20.464H27.883a3.116,3.116,0,0,1-3.107-3.107V7H11.312a1.041,1.041,0,0,0-.994.746L2.25,34.963h49.2Z" transform="translate(-1.991 -1.822)" fill="#fff"/>
  </g>
</svg>
